# xmcd
#
# Track frame offsets:
#	150
#	16035
#	40606
#	57914
#	76086
#	102393
#	120357
#	145400
#	163234
#	187621
#	208613
#	231990
#	250386
#	272437
#	288120
#	312922
#
# Disc length: 4379 seconds
#
# Revision: 0
# Processed by: cddbd v1.5.1PL2 Copyright (c) Steve Scherf et al.
# Submitted via: dBpowerAMP V4.0
#
DISCID=cd111910
DTITLE=Various Artist - Nostalgia Hits Klasik
DYEAR=1997
DGENRE=Pop
TTITLE0=Namunku Punya Hati - V3
TTITLE1=Kerana - Alleycats
TTITLE2=Babak Cinta Terakhir - Freedom
TTITLE3=Hati Emas - Kembara
TTITLE4=Segalanya Mungkin - Headwind
TTITLE5=Andaikata Serai Berbunga - Flybaits
TTITLE6=Gadisku - Search
TTITLE7=Suatu Masa - M.Nasir
TTITLE8=Suara Kekasih - Alleycats
TTITLE9=Gerhana - Kembara
TTITLE10=Kita Serupa - Headwind
TTITLE11=Kasih Berubah - Flybaits
TTITLE12=Kejora - Search
TTITLE13=Dua Insan - M.Nasir and Yunizar Hussien
TTITLE14=Bunga Larangan - UG14
TTITLE15=Saya Anak Malaysia - dR. Sam
EXTD=Best Album, Kamarul
EXTT0=
EXTT1=
EXTT2=
EXTT3=
EXTT4=
EXTT5=
EXTT6=
EXTT7=
EXTT8=
EXTT9=
EXTT10=
EXTT11=
EXTT12=
EXTT13=
EXTT14=
EXTT15=
PLAYORDER=
